<?xml version="1.0" encoding="utf-8"?>
<!-- Generator: Adobe Illustrator 25.4.1, SVG Export Plug-In . SVG Version: 6.00 Build 0)  -->
<svg version="1.1" id="Layer_1" xmlns="http://www.w3.org/2000/svg" xmlns:xlink="http://www.w3.org/1999/xlink" x="0px" y="0px"
	 viewBox="0 0 392 392" style="enable-background:new 0 0 392 392;" xml:space="preserve">
<g>
	<path d="M196,0C87.8,0,0,87.8,0,196c0,108.2,87.8,196,196,196s196-87.8,196-196S304.2,0,196,0z M196,11.2
		c102.1,0,184.8,82.7,184.8,184.8S298.1,380.8,196,380.8S11.2,298.1,11.2,196S93.9,11.2,196,11.2L196,11.2z M195.3,89.4
		c-2.9,0.4-5,2.9-4.9,5.8v95.2H95.2c-0.3,0-0.7,0-1.1,0c-3.1,0.3-5.4,3-5.1,6.1c0.3,3.1,3,5.4,6.1,5.1h95.2v95.2
		c0,1.5,0.6,2.9,1.6,4c1.1,1.1,2.5,1.7,4,1.7s2.9-0.6,4-1.7c1.1-1.1,1.6-2.5,1.6-4v-95.2h95.2c1.5,0,2.9-0.6,4-1.6
		c1.1-1.1,1.7-2.5,1.7-4s-0.6-2.9-1.7-4c-1.1-1.1-2.5-1.6-4-1.6h-95.2V95.2c0.1-1.6-0.6-3.2-1.8-4.3
		C198.6,89.7,196.9,89.2,195.3,89.4L195.3,89.4z"/>
</g>
</svg>
