<?xml version="1.0" encoding="utf-8"?>
<!-- Generator: Adobe Illustrator 25.4.1, SVG Export Plug-In . SVG Version: 6.00 Build 0)  -->
<svg version="1.1" id="Calque_1" xmlns="http://www.w3.org/2000/svg" xmlns:xlink="http://www.w3.org/1999/xlink" x="0px" y="0px"
	 viewBox="0 0 1472.3 290.1" style="enable-background:new 0 0 1472.3 290.1;" xml:space="preserve">
<style type="text/css">
	.st0{fill:#010202;}
</style>
<g>
	<path class="st0" d="M973,288.7h13.3v-59.5h0.4l16.6,58.9h16.1l16.6-58.9h0.4v59.5h13.3V214H1029l-17.4,61.9h-0.4L993.6,214H973
		L973,288.7L973,288.7z M1089.6,290.1c17.3,0,26.6-10.8,26.6-28.1c0-17.3-9.2-28.2-26.6-28.2c-17.2,0-26.5,10.8-26.5,28.2
		C1063.1,279.2,1072.4,290.1,1089.6,290.1L1089.6,290.1z M1076.7,262c0-11.2,4-18.1,12.9-18.1c8.9,0,13,6.9,13,18.1c0,11-4,18-13,18
		C1080.8,280,1076.7,273.1,1076.7,262L1076.7,262z M1129.7,288.7h13.4V260c0-9.7,4.9-15.6,12.8-15.6c8.1,0,10.9,5.3,10.9,14v30.3
		h13.4v-33.5c0-14.7-8.2-21.4-18.7-21.4c-8,0-15,4.4-18,9.8h-0.4v-8.3h-13.4V288.7L1129.7,288.7z M1215.7,288.7h12.5l2.9-11.1
		l-10.5-0.1c-7.1,0-7.5-3.1-7.5-7.6v-23.7h17.6v-10.8H1213v-16.1h-10.9v4.9c0,8.9-2.5,11.7-10.4,11.7h-1.8v10.3h9.9v28
		C1199.7,282.6,1204.9,288.7,1215.7,288.7L1215.7,288.7z M1243.9,288.7h13.4v-27.5c0-7.1,0.8-16.2,9.7-16.2c6.7,0,7.5,5.7,7.5,10.2
		v8.3l11.8-2.3v-7.6c0-7.6-1-19.7-13.8-19.7c-9.8,0-13.7,7-14.8,9.6h-0.4v-8.1h-13.4V288.7L1243.9,288.7z M1321.7,290.1
		c13.7,0,21.3-6.7,24.2-15.2l-12.3-3.5c-1.9,5.7-5.6,8.7-12,8.7c-8.9,0-12.9-5.6-13.8-14h38.5c0.3-1.5,0.3-2.7,0.3-4
		c0-18.5-9.2-28.2-25.9-28.2c-17,0-26.3,10.8-26.3,28.3C1294.4,279.4,1303.3,290.1,1321.7,290.1L1321.7,290.1z M1307.9,256.8
		c1.1-7.9,4.8-13,12.8-13c8.8,0,11.8,6.1,12.7,13H1307.9L1307.9,256.8z M1377.2,290.1c7.9,0,14.5-4.2,17.4-9.8h0.4v8.4h13.4v-53.4
		h-13.4V264c0,9.7-4.7,15.6-12.3,15.6c-7.7,0-10.8-5.3-10.8-14v-30.2h-13.1v33.4C1358.8,283.4,1367,290.1,1377.2,290.1L1377.2,290.1
		z M1427,288.7h13.3v-53.4H1427V288.7L1427,288.7z M1426.9,228.3h13.4V214h-13.4V228.3L1426.9,228.3z M1459,288.7h13.3V214H1459
		V288.7L1459,288.7z"/>
	<path class="st0" d="M973,182.4h13.4v-34.8h21.3c17.3,0,25.6-6.1,25.6-20c0-13.8-8.3-20-25.6-20H973L973,182.4L973,182.4z
		 M986.4,136.6v-17.8h18.7c9.8,0,14.5,1.6,14.5,8.8c0,7.3-4.7,8.9-14.5,8.9H986.4L986.4,136.6z M1061.5,183.8
		c7.9,0,14.4-4.2,17.4-9.8h0.4v8.4h13.4V129h-13.4v28.6c0,9.7-4.7,15.6-12.3,15.6c-7.7,0-10.8-5.3-10.8-14v-30.2h-13.1v33.4
		C1043.1,177.1,1051.3,183.8,1061.5,183.8L1061.5,183.8z M1141.2,183.8c14.3,0,23.5-10.2,23.5-28.1s-9.2-28.2-23.5-28.2
		c-7.8,0-13.4,4-16.4,9.6h-0.4v-29.4h-13.4v74.7h13.4v-8.2h0.4C1127.8,179.8,1133.5,183.8,1141.2,183.8L1141.2,183.8z M1124.1,155.7
		c0-11.9,6.8-17.1,13.7-17.1c7.7,0,13.3,5.2,13.3,17.1s-5.6,17.1-13.3,17.1C1130.9,172.9,1124.1,167.6,1124.1,155.7L1124.1,155.7z
		 M1179.3,182.4h13.3v-74.7h-13.3V182.4L1179.3,182.4z M1211.3,182.4h13.3v-53.4h-13.3V182.4L1211.3,182.4z M1211.2,122h13.4v-14.3
		h-13.4V122L1211.2,122z M1265.8,183.8c14.2,0,22-6.3,24.8-17.2l-12.7-3.9c-1.3,7.3-5.3,11.1-12.1,11.1c-9.5,0-13.9-6.8-13.9-18
		c0-11.3,4.5-18.1,13.9-18.1c6.8,0,10.4,3.8,12.1,11.2l12.7-4c-2.8-10.9-10.5-17.2-24.8-17.2c-18,0-27.5,10.9-27.5,28.2
		S1247.9,183.8,1265.8,183.8L1265.8,183.8z"/>
	<path class="st0" d="M988,76.1h13.3V12.5h22.7V1.4h-58.6v11.2H988V76.1L988,76.1z M1034.5,76.1h13.4V47.4c0-9.7,4.7-15.6,12.4-15.6
		s10.8,5.3,10.8,14v30.3h13.2V42.6c0-14.7-8.2-21.4-18.5-21.4c-8,0-14.6,4.4-17.5,9.8h-0.4V1.4h-13.4V76.1L1034.5,76.1z
		 M1124.2,77.5c13.7,0,21.3-6.7,24.2-15.2l-12.3-3.5c-1.9,5.7-5.6,8.7-12,8.7c-8.9,0-12.9-5.6-13.8-14h38.5c0.3-1.5,0.3-2.7,0.3-4
		c0-18.5-9.2-28.2-25.9-28.2c-17,0-26.3,10.8-26.3,28.3C1096.9,66.8,1105.8,77.5,1124.2,77.5L1124.2,77.5z M1110.4,44.2
		c1.1-7.9,4.8-13,12.8-13c8.8,0,11.8,6.1,12.7,13H1110.4L1110.4,44.2z M1117.9,15.5h9.1L1137.6,0h-16.2L1117.9,15.5L1117.9,15.5z
		 M1176.8,77.5c7.4,0,15.6-3,18.8-9.5h0.4v0.5c-0.1,5.9,3.7,7.6,8.3,7.6h8l2.1-9.6h-4.3c-3.8-0.1-3.7-1.9-3.7-5.1V39.3
		c0-14.4-11.7-18.1-22.1-18.1c-13.8,0-23.1,7.2-25.3,16.3l11.6,4.5c1-6.5,6.6-10.5,13.8-10.5c5.8,0,9.5,2.1,9.5,5.1
		c0,2.2-2.1,3.3-4.2,4.2l-15,5.6c-6.1,2.2-15.3,6-15.3,16.8C1159.3,72.2,1166.9,77.5,1176.8,77.5L1176.8,77.5z M1165.5,15.6h7.2
		l10.9-7.6l10.8,7.6h7.2l-10.6-15.5h-14.9L1165.5,15.6L1165.5,15.6z M1172.6,61.8c0-3.7,3.1-5.8,7.8-7.9l10.3-3.9
		c2.2-1,3.3-1.5,3.8-1.9v6.2c0,10.4-9.7,13.1-14.5,13.1C1175.8,67.3,1172.6,65.4,1172.6,61.8L1172.6,61.8z M1243.7,76.1h12.5
		l2.9-11.1l-10.5-0.1c-7.1,0-7.5-3.1-7.5-7.7V33.6h17.6V22.8h-17.6v-16h-11v4.9c0,8.9-2.4,11.7-10.4,11.7h-1.8v10.3h9.9v28
		C1227.8,70.1,1233,76.1,1243.7,76.1L1243.7,76.1z M1272,76.1h13.4V48.6c0-7.1,0.7-16.2,9.7-16.2c6.7,0,7.5,5.7,7.5,10.2v8.3
		l11.8-2.3v-7.7c0-7.7-1-19.7-13.8-19.7c-9.8,0-13.7,7-14.8,9.6h-0.4v-8.1H1272V76.1L1272,76.1z M1349.8,77.5
		c13.7,0,21.3-6.7,24.2-15.2l-12.3-3.5c-1.9,5.7-5.6,8.7-12,8.7c-8.9,0-12.9-5.6-13.8-14h38.5c0.3-1.5,0.3-2.7,0.3-4
		c0-18.5-9.2-28.2-25.9-28.2c-17,0-26.3,10.8-26.3,28.3C1322.5,66.8,1331.4,77.5,1349.8,77.5L1349.8,77.5z M1336,44.2
		c1.1-7.9,4.8-13,12.8-13c8.8,0,11.8,6.1,12.7,13H1336L1336,44.2z"/>
	<path class="st0" d="M98.3,289.7H156V44.5h98.3v-43H0v43.1h98.3V289.7L98.3,289.7z M286.5,289.7h58.1V167.3H437
		c75.2,0,111.2-29.2,111.2-82.9c0-53.3-36-82.9-111.2-82.9H286.5V289.7L286.5,289.7z M344.7,124.7V44.5h84.1
		c42.5,0,59.8,12,59.8,39.9c0,28.3-17.9,40.3-62.8,40.3H344.7L344.7,124.7z M581.4,289.7h57.7V60.1h1.8l72,227.1h69.7l72-227.1h1.8
		v229.6h57.7V1.5h-89.5l-75.7,238.6H747L670.9,1.5h-89.5V289.7L581.4,289.7z"/>
</g>
</svg>
