<?xml version="1.0" encoding="utf-8"?>
<!-- Generator: Adobe Illustrator 25.4.1, SVG Export Plug-In . SVG Version: 6.00 Build 0)  -->
<svg version="1.0" id="Layer_1" xmlns="http://www.w3.org/2000/svg" xmlns:xlink="http://www.w3.org/1999/xlink" x="0px" y="0px"
	 viewBox="0 0 1049.64 140.15" style="enable-background:new 0 0 1049.64 140.15;" xml:space="preserve">
<g>
	<path d="M704.87,139.48h6.42v-36.1h-6.42V139.48z M689.36,110.31h6.47v-6.93h-6.47V110.31z M689.41,139.48h6.42V113.7h-6.42V139.48
		z M665.38,140.15c3.8,0,6.98-2.05,8.42-4.72H674v4.06h6.47V113.7H674v13.82c0,4.67-2.26,7.55-5.96,7.55c-3.7,0-5.24-2.57-5.24-6.78
		V113.7h-6.32v16.13C656.49,136.92,660.44,140.15,665.38,140.15 M631.89,124.08c0.51-3.8,2.31-6.27,6.16-6.27
		c4.26,0,5.7,2.93,6.11,6.27H631.89z M638.57,140.15c6.62,0,10.27-3.24,11.71-7.34l-5.96-1.7c-0.92,2.77-2.72,4.21-5.8,4.21
		c-4.31,0-6.21-2.72-6.68-6.78h18.59c0.15-0.72,0.15-1.28,0.15-1.95c0-8.94-4.47-13.61-12.53-13.61c-8.22,0-12.68,5.24-12.68,13.66
		C625.37,134.97,629.68,140.15,638.57,140.15 M600.97,139.48h6.47v-13.3c0-3.44,0.36-7.81,4.67-7.81c3.24,0,3.65,2.77,3.65,4.93v4
		l5.7-1.13v-3.7c0-3.7-0.46-9.5-6.68-9.5c-4.72,0-6.62,3.39-7.14,4.62h-0.21v-3.9h-6.47V139.48z M587.31,139.48h6.06l1.39-5.34
		l-5.08-0.05c-3.44,0-3.65-1.49-3.65-3.7v-11.45h8.53v-5.24h-8.53v-7.76h-5.29v2.36c0,4.31-1.18,5.65-5.03,5.65h-0.87v4.98h4.78
		v13.51C579.61,136.56,582.13,139.48,587.31,139.48 M545.77,139.48h6.47v-13.87c0-4.67,2.36-7.55,6.16-7.55
		c3.9,0,5.29,2.57,5.29,6.78v14.64h6.47v-16.18c0-7.09-3.95-10.32-9.04-10.32c-3.85,0-7.24,2.11-8.68,4.73h-0.21v-4.01h-6.47V139.48
		z M520.19,126.59c0-5.39,1.95-8.73,6.21-8.73c4.31,0,6.27,3.34,6.27,8.73c0,5.34-1.95,8.68-6.27,8.68
		C522.14,135.27,520.19,131.94,520.19,126.59 M526.4,140.15c8.37,0,12.84-5.24,12.84-13.56c0-8.37-4.47-13.61-12.84-13.61
		c-8.32,0-12.79,5.24-12.79,13.61C513.62,134.91,518.08,140.15,526.4,140.15 M470.07,139.48h6.42v-28.76h0.21l8.01,28.45h7.76
		l8.01-28.45h0.21v28.76h6.42v-36.1h-9.96l-8.42,29.89h-0.21l-8.47-29.89h-9.96V139.48z"/>
	<path d="M611.55,88.8c6.88,0,10.63-3.03,11.97-8.32l-6.11-1.9c-0.62,3.54-2.57,5.34-5.85,5.34c-4.57,0-6.73-3.29-6.73-8.68
		c0-5.44,2.16-8.73,6.73-8.73c3.29,0,5.03,1.85,5.85,5.39l6.11-1.95c-1.34-5.29-5.08-8.32-11.97-8.32c-8.68,0-13.3,5.29-13.3,13.61
		C598.25,83.56,602.87,88.8,611.55,88.8 M585.16,58.96h6.47v-6.93h-6.47V58.96z M585.21,88.13h6.42V62.35h-6.42V88.13z
		 M569.75,88.13h6.42v-36.1h-6.42V88.13z M543.1,75.24c0-5.75,3.29-8.27,6.62-8.27c3.7,0,6.42,2.52,6.42,8.27
		c0,5.75-2.72,8.27-6.42,8.27C546.38,83.51,543.1,80.99,543.1,75.24 M551.36,88.8c6.93,0,11.35-4.93,11.35-13.56
		c0-8.63-4.42-13.61-11.35-13.61c-3.75,0-6.47,1.95-7.91,4.62h-0.21V52.02h-6.47v36.1h6.47v-3.95h0.21
		C544.89,86.84,547.61,88.8,551.36,88.8 M512.85,88.8c3.8,0,6.98-2.05,8.42-4.72h0.21v4.06h6.47V62.35h-6.47v13.82
		c0,4.67-2.26,7.55-5.96,7.55c-3.7,0-5.24-2.57-5.24-6.78V62.35h-6.32v16.13C503.96,85.56,507.92,88.8,512.85,88.8 M476.54,65.99
		v-8.58h9.04c4.73,0,6.98,0.77,6.98,4.26c0,3.54-2.26,4.31-6.98,4.31H476.54z M470.07,88.13h6.47V71.33h10.27
		c8.37,0,12.38-2.93,12.38-9.66c0-6.68-4.01-9.65-12.38-9.65h-16.74V88.13z"/>
	<path d="M645.45,21.36c0.51-3.8,2.31-6.27,6.16-6.27c4.26,0,5.7,2.93,6.11,6.27H645.45z M652.12,37.44
		c6.62,0,10.27-3.24,11.71-7.34l-5.96-1.7c-0.92,2.77-2.72,4.21-5.8,4.21c-4.31,0-6.21-2.72-6.68-6.78h18.59
		c0.15-0.72,0.15-1.28,0.15-1.95c0-8.94-4.47-13.61-12.53-13.61c-8.22,0-12.68,5.24-12.68,13.66
		C638.93,32.25,643.24,37.44,652.12,37.44 M614.53,36.77H621v-13.3c0-3.44,0.36-7.81,4.67-7.81c3.24,0,3.65,2.77,3.65,4.93v4
		l5.7-1.13v-3.7c0-3.7-0.46-9.5-6.68-9.5c-4.73,0-6.62,3.39-7.14,4.62H621v-3.9h-6.47V36.77z M600.87,36.77h6.06l1.39-5.34
		l-5.08-0.05c-3.44,0-3.65-1.49-3.65-3.7V16.23h8.53v-5.24h-8.53V3.24h-5.29V5.6c0,4.31-1.18,5.65-5.03,5.65h-0.87v4.98h4.78v13.51
		C593.17,33.84,595.68,36.77,600.87,36.77 M566.51,29.84c0-1.8,1.49-2.83,3.75-3.8l4.98-1.9c1.08-0.46,1.59-0.72,1.85-0.92v2.98
		c0,5.03-4.67,6.32-6.98,6.32C568.05,32.51,566.51,31.58,566.51,29.84 M563.07,7.55h3.49l5.29-3.65l5.24,3.65h3.49l-5.14-7.5h-7.19
		L563.07,7.55z M568.52,37.44c3.6,0,7.55-1.44,9.09-4.57h0.21v0.26c-0.05,2.88,1.8,3.65,4.01,3.65h3.85l1.03-4.62h-2.05
		c-1.85-0.05-1.8-0.93-1.8-2.47V19c0-6.93-5.65-8.73-10.68-8.73c-6.68,0-11.15,3.49-12.22,7.86l5.6,2.16
		c0.46-3.13,3.18-5.08,6.68-5.08c2.83,0,4.57,1.03,4.57,2.46c0,1.08-1.03,1.59-2.05,2l-7.24,2.72c-2.93,1.08-7.4,2.88-7.4,8.11
		C560.09,34.87,563.74,37.44,568.52,37.44 M540.06,7.5h4.42l5.14-7.5h-7.81L540.06,7.5z M536.47,21.36c0.51-3.8,2.31-6.27,6.16-6.27
		c4.26,0,5.7,2.93,6.11,6.27H536.47z M543.15,37.44c6.62,0,10.27-3.24,11.71-7.34l-5.96-1.7c-0.92,2.77-2.72,4.21-5.8,4.21
		c-4.31,0-6.21-2.72-6.68-6.78h18.59c0.15-0.72,0.15-1.28,0.15-1.95c0-8.94-4.47-13.61-12.53-13.61c-8.22,0-12.68,5.24-12.68,13.66
		C529.95,32.25,534.26,37.44,543.15,37.44 M499.8,36.77h6.47V22.91c0-4.67,2.26-7.55,6.01-7.55c3.75,0,5.24,2.57,5.24,6.78v14.64
		h6.37V20.59c0-7.09-3.95-10.32-8.94-10.32c-3.85,0-7.04,2.11-8.47,4.73h-0.21V0.67h-6.47V36.77z M477.31,36.77h6.42V6.06h10.94
		V0.67h-28.3v5.39h10.94V36.77z"/>
	<path d="M949.08,139.48h6.42v-36.1h-6.42V139.48z M923.46,132.55c0-1.8,1.49-2.83,3.75-3.8l4.98-1.9c1.08-0.46,1.59-0.72,1.85-0.92
		v2.98c0,5.03-4.67,6.32-6.98,6.32C925,135.22,923.46,134.3,923.46,132.55 M925.46,140.15c3.59,0,7.55-1.44,9.09-4.57h0.2v0.26
		c-0.05,2.88,1.8,3.65,4.01,3.65h3.85l1.03-4.62h-2.05c-1.85-0.05-1.8-0.93-1.8-2.47v-10.68c0-6.93-5.65-8.73-10.68-8.73
		c-6.68,0-11.14,3.49-12.22,7.86l5.6,2.16c0.46-3.13,3.18-5.08,6.68-5.08c2.82,0,4.57,1.03,4.57,2.46c0,1.08-1.03,1.59-2.05,2
		l-7.24,2.72c-2.93,1.08-7.4,2.88-7.4,8.11C917.04,137.58,920.68,140.15,925.46,140.15 M885.76,139.48h6.47v-13.87
		c0-4.67,2.36-7.55,6.16-7.55c3.9,0,5.29,2.57,5.29,6.78v14.64h6.47v-16.18c0-7.09-3.95-10.32-9.04-10.32
		c-3.85,0-7.24,2.11-8.68,4.73h-0.2v-4.01h-6.47V139.48z M860.18,126.59c0-5.39,1.95-8.73,6.21-8.73c4.31,0,6.27,3.34,6.27,8.73
		c0,5.34-1.95,8.68-6.27,8.68C862.14,135.27,860.18,131.94,860.18,126.59 M866.4,140.15c8.37,0,12.84-5.24,12.84-13.56
		c0-8.37-4.47-13.61-12.84-13.61c-8.32,0-12.79,5.24-12.79,13.61C853.61,134.91,858.08,140.15,866.4,140.15 M840.52,110.31h6.47
		v-6.93h-6.47V110.31z M840.57,139.48h6.42V113.7h-6.42V139.48z M826.8,139.48h6.06l1.39-5.34l-5.08-0.05
		c-3.44,0-3.65-1.49-3.65-3.7v-11.45h8.53v-5.24h-8.53v-7.76h-5.29v2.36c0,4.31-1.18,5.65-5.03,5.65h-0.87v4.98h4.78v13.51
		C819.1,136.56,821.62,139.48,826.8,139.48 M792.45,132.55c0-1.8,1.49-2.83,3.75-3.8l4.98-1.9c1.08-0.46,1.59-0.72,1.85-0.92v2.98
		c0,5.03-4.67,6.32-6.98,6.32C793.99,135.22,792.45,134.3,792.45,132.55 M794.45,140.15c3.59,0,7.55-1.44,9.09-4.57h0.2v0.26
		c-0.05,2.88,1.8,3.65,4.01,3.65h3.85l1.03-4.62h-2.05c-1.85-0.05-1.8-0.93-1.8-2.47v-10.68c0-6.93-5.65-8.73-10.68-8.73
		c-6.68,0-11.14,3.49-12.22,7.86l5.6,2.16c0.46-3.13,3.18-5.08,6.68-5.08c2.82,0,4.57,1.03,4.57,2.46c0,1.08-1.03,1.59-2.05,2
		l-7.24,2.72c-2.93,1.08-7.4,2.88-7.4,8.11C786.03,137.58,789.67,140.15,794.45,140.15 M754.75,139.48h6.47v-13.87
		c0-4.67,2.36-7.55,6.16-7.55c3.9,0,5.29,2.57,5.29,6.78v14.64h6.47v-16.18c0-7.09-3.95-10.32-9.04-10.32
		c-3.85,0-7.24,2.11-8.68,4.73h-0.2v-4.01h-6.47V139.48z"/>
	<path d="M1030.94,72.72c0.51-3.8,2.31-6.27,6.16-6.27c4.26,0,5.7,2.93,6.11,6.27H1030.94z M1037.62,88.8
		c6.62,0,10.27-3.24,11.71-7.34l-5.96-1.69c-0.93,2.77-2.72,4.21-5.8,4.21c-4.31,0-6.21-2.72-6.68-6.78h18.59
		c0.15-0.72,0.15-1.28,0.15-1.95c0-8.94-4.47-13.61-12.53-13.61c-8.22,0-12.69,5.24-12.69,13.66
		C1024.42,83.61,1028.74,88.8,1037.62,88.8 M1002.8,88.8c3.8,0,6.98-2.05,8.42-4.72h0.21v4.06h6.47V62.35h-6.47v13.82
		c0,4.67-2.26,7.55-5.96,7.55c-3.7,0-5.24-2.57-5.24-6.78V62.35h-6.32v16.13C993.92,85.56,997.87,88.8,1002.8,88.8 M966.18,75.24
		c0-5.75,2.72-8.27,6.42-8.27c3.39,0,6.62,2.52,6.62,8.27s-3.24,8.27-6.62,8.27C968.91,83.51,966.18,80.99,966.18,75.24
		 M971.01,88.8c3.7,0,6.42-1.95,7.91-4.62h0.15v13.35h6.47V62.35h-6.47v3.9h-0.15c-1.49-2.67-4.21-4.62-7.91-4.62
		c-6.98,0-11.4,4.98-11.4,13.61S964.03,88.8,971.01,88.8 M946.1,58.96h6.47v-6.93h-6.47V58.96z M946.16,88.13h6.42V62.35h-6.42
		V88.13z M932.39,88.13h6.06l1.39-5.34l-5.08-0.05c-3.44,0-3.65-1.49-3.65-3.7V67.59h8.53v-5.24h-8.53v-7.76h-5.29v2.36
		c0,4.31-1.18,5.65-5.03,5.65h-0.87v4.98h4.78v13.51C924.69,85.2,927.2,88.13,932.39,88.13 M898.03,81.19c0-1.8,1.49-2.82,3.75-3.8
		l4.98-1.9c1.08-0.46,1.59-0.72,1.85-0.92v2.98c0,5.03-4.67,6.32-6.98,6.32C899.58,83.87,898.03,82.94,898.03,81.19 M900.04,88.8
		c3.6,0,7.55-1.44,9.09-4.57h0.2v0.26c-0.05,2.88,1.8,3.65,4.01,3.65h3.85l1.03-4.62h-2.05c-1.85-0.05-1.8-0.92-1.8-2.46V70.36
		c0-6.93-5.65-8.73-10.68-8.73c-6.68,0-11.14,3.49-12.22,7.86l5.6,2.16c0.46-3.13,3.18-5.08,6.68-5.08c2.82,0,4.57,1.03,4.57,2.47
		c0,1.08-1.03,1.59-2.05,2l-7.24,2.72c-2.93,1.08-7.4,2.88-7.4,8.11C891.61,86.23,895.26,88.8,900.04,88.8 M844.83,88.13h6.42V73.8
		c0-4.01,1.75-6.98,5.55-6.98c3.24,0,4.72,2.31,4.72,5.29v16.02h6.47V73.49c0-3.7,1.8-6.68,5.49-6.68c3.08,0,4.78,2.11,4.78,5.29
		v16.02h6.42V70.87c0-6.52-3.9-9.24-8.47-9.24c-4.93,0-7.81,2.67-9.04,5.03h-0.21c-1.03-3.08-3.8-5.03-7.45-5.03
		c-4.01,0-6.78,2.05-8.06,4.57h-0.15v-3.85h-6.47V88.13z M819.31,81.19c0-1.8,1.49-2.82,3.75-3.8l4.98-1.9
		c1.08-0.46,1.59-0.72,1.85-0.92v2.98c0,5.03-4.67,6.32-6.98,6.32C820.85,83.87,819.31,82.94,819.31,81.19 M821.31,88.8
		c3.6,0,7.55-1.44,9.09-4.57h0.2v0.26c-0.05,2.88,1.8,3.65,4.01,3.65h3.85l1.03-4.62h-2.05c-1.85-0.05-1.8-0.92-1.8-2.46V70.36
		c0-6.93-5.65-8.73-10.68-8.73c-6.68,0-11.14,3.49-12.22,7.86l5.6,2.16c0.46-3.13,3.18-5.08,6.68-5.08c2.83,0,4.57,1.03,4.57,2.47
		c0,1.08-1.03,1.59-2.05,2l-7.24,2.72c-2.93,1.08-7.4,2.88-7.4,8.11C812.89,86.23,816.53,88.8,821.31,88.8 M787.62,88.13h6.47v-13.3
		c0-3.44,0.36-7.81,4.67-7.81c3.24,0,3.65,2.77,3.65,4.93v4.01l5.7-1.13v-3.7c0-3.7-0.46-9.5-6.68-9.5c-4.72,0-6.62,3.39-7.14,4.62
		h-0.21v-3.9h-6.47V88.13z M759.42,75.24c0-5.75,2.72-8.27,6.42-8.27c3.39,0,6.62,2.52,6.62,8.27s-3.23,8.27-6.62,8.27
		C762.15,83.51,759.42,80.99,759.42,75.24 M764.25,88.8c3.7,0,6.42-1.95,7.91-4.62h0.15v3.95h6.47v-36.1h-6.47v14.23h-0.15
		c-1.49-2.67-4.21-4.62-7.91-4.62c-6.98,0-11.4,4.98-11.4,13.61S757.27,88.8,764.25,88.8"/>
	<path d="M904.86,21.36c0.51-3.8,2.31-6.27,6.16-6.27c4.26,0,5.7,2.93,6.11,6.27H904.86z M911.54,37.44
		c6.62,0,10.27-3.23,11.71-7.34l-5.96-1.69c-0.92,2.77-2.72,4.21-5.8,4.21c-4.31,0-6.21-2.72-6.68-6.78h18.59
		c0.15-0.72,0.15-1.28,0.15-1.95c0-8.94-4.47-13.61-12.53-13.61c-8.22,0-12.68,5.24-12.68,13.66
		C898.34,32.25,902.66,37.44,911.54,37.44 M873.95,36.77h6.47v-13.3c0-3.44,0.36-7.81,4.67-7.81c3.23,0,3.65,2.77,3.65,4.93v4.01
		l5.7-1.13v-3.7c0-3.7-0.46-9.5-6.68-9.5c-4.72,0-6.62,3.39-7.14,4.62h-0.21v-3.9h-6.47V36.77z M860.29,36.77h6.06l1.39-5.34
		l-5.08-0.05c-3.44,0-3.65-1.49-3.65-3.7V16.23h8.53v-5.24H859V3.23h-5.29V5.6c0,4.31-1.18,5.65-5.03,5.65h-0.87v4.98h4.78v13.51
		C852.58,33.84,855.1,36.77,860.29,36.77 M818.74,36.77h6.47V22.9c0-4.67,2.36-7.55,6.16-7.55c3.9,0,5.29,2.57,5.29,6.78v14.64h6.47
		V20.59c0-7.09-3.95-10.32-9.04-10.32c-3.85,0-7.24,2.11-8.68,4.72h-0.21v-4.01h-6.47V36.77z M793.68,21.36
		c0.51-3.8,2.31-6.27,6.16-6.27c4.26,0,5.7,2.93,6.11,6.27H793.68z M800.35,37.44c6.62,0,10.27-3.23,11.71-7.34l-5.96-1.69
		c-0.93,2.77-2.72,4.21-5.8,4.21c-4.31,0-6.21-2.72-6.68-6.78h18.59c0.15-0.72,0.15-1.28,0.15-1.95c0-8.94-4.47-13.61-12.53-13.61
		c-8.22,0-12.69,5.24-12.69,13.66C787.16,32.25,791.47,37.44,800.35,37.44 M768.62,37.44c8.22,0,12.53-4.31,14.12-11.35l-6.27-1.75
		c-0.82,4.98-3.18,7.86-7.86,7.86c-6.32,0-9.35-5.34-9.35-13.46s3.03-13.46,9.35-13.46c4.67,0,7.04,2.88,7.86,7.81l6.27-1.75
		C781.15,4.31,776.83,0,768.62,0c-9.6,0-15.92,6.73-15.92,18.74C752.7,30.81,759.01,37.44,768.62,37.44"/>
	<path d="M280.89,139.95h27.87V29.04h0.89l34.78,109.72h33.66l34.78-109.72h0.89v110.91h27.87V0.72h-43.25l-36.56,115.27h-0.89
		L324.13,0.72h-43.25V139.95z M166.52,60.23V21.51h40.65c20.51,0,28.91,5.79,28.91,19.26c0,13.67-8.63,19.46-30.32,19.46H166.52z
		 M138.43,139.95h28.09V80.83h44.59c36.34,0,53.73-14.11,53.73-40.05c0-25.75-17.39-40.05-53.73-40.05h-72.67V139.95z M47.48,139.95
		h27.87V21.51h47.48V0.72H0v20.79h47.48V139.95z"/>
</g>
</svg>
